<svg version="1" xmlns="http://www.w3.org/2000/svg" width="533.333" height="533.333" viewBox="0 0 400.000000 400.000000"><path d="M189.5 62.6C125.7 69 76.2 113.9 64.5 176c-2.4 12.6-2.5 35.1-.2 47.7 9.2 50.7 44.7 91.8 93 107.8 14.2 4.6 26.4 6.5 43.2 6.5 22.6 0 40.5-4 60-13.5 40.2-19.4 68.3-56.9 76-101.4 2-11.1 1.9-34.2-.1-46.2-9.3-55.5-53.2-100.5-109.2-111.9-9.5-1.9-29.8-3.2-37.7-2.4zm38 29.8c18.2 4.7 37.7 15.8 51 29.1 13.1 13.2 24.2 32.6 29.2 51 2.4 9 2.6 11.7 2.6 27.5s-.2 18.5-2.6 27.5c-5 18.4-16.1 37.8-29.2 51-13.2 13.1-32.6 24.2-51 29.2-9 2.4-11.7 2.6-27.5 2.6s-18.5-.2-27.5-2.6c-18.4-5-37.8-16.1-51-29.2-13.1-13.2-24.2-32.6-29.2-51-2.4-9-2.6-11.7-2.6-27.5s.2-18.5 2.6-27.5c5-18.4 16.1-37.8 29.2-51 16.1-16.1 39.4-27.9 62.1-31.5 10.7-1.7 32.7-.5 43.9 2.4z"/></svg>